<svg id="Layer_1" data-name="Layer 1" xmlns="http://www.w3.org/2000/svg" viewBox="0 0 400 300" width="406" height="306" class="illustration styles_illustrationTablet__1DWOa"><title>_</title><path d="M105.23,62.89C71.29,72.06,44.51,93.55,40.28,133.1c-3.57,33.33,4.9,90,62.52,96.15,116.49,12.43,240.58,24.9,257.26-32.54,11.31-38.94,14.93-108.62-48-130.18C269.45,51.91,178,43.23,105.23,62.89Z" fill="#e6e6e6" opacity="0.3"></path><rect x="114.82" y="74.06" width="242" height="134.91" fill="#e6e6e6"></rect><rect x="297.18" y="97.09" width="37.92" height="43.15" fill="#fff" opacity="0.46"></rect><rect x="297.18" y="150.02" width="37.92" height="7.53" fill="#a5a5a5" opacity="0.18"></rect><rect x="297.18" y="164.22" width="37.92" height="7.53" fill="#a5a5a5" opacity="0.18"></rect><rect x="297.18" y="178.42" width="30.33" height="7.53" fill="#a5a5a5" opacity="0.18"></rect><rect x="243.63" y="97.09" width="37.92" height="43.15" fill="#fff" opacity="0.46"></rect><rect x="243.63" y="150.02" width="37.92" height="7.53" fill="#a5a5a5" opacity="0.18"></rect><rect x="243.63" y="164.22" width="37.92" height="7.53" fill="#a5a5a5" opacity="0.18"></rect><rect x="243.63" y="178.42" width="30.33" height="7.53" fill="#a5a5a5" opacity="0.18"></rect><rect x="190.09" y="97.09" width="37.92" height="43.15" fill="#fff" opacity="0.46"></rect><rect x="190.09" y="150.02" width="37.92" height="7.53" fill="#a5a5a5" opacity="0.18"></rect><rect x="190.09" y="164.22" width="37.92" height="7.53" fill="#a5a5a5" opacity="0.18"></rect><rect x="190.09" y="178.42" width="30.33" height="7.53" fill="#a5a5a5" opacity="0.18"></rect><rect x="136.54" y="97.09" width="37.92" height="43.15" fill="#fff" opacity="0.46"></rect><rect x="136.54" y="150.02" width="37.92" height="7.53" fill="#a5a5a5" opacity="0.18"></rect><rect x="136.54" y="164.22" width="37.92" height="7.53" fill="#a5a5a5" opacity="0.18"></rect><rect x="136.54" y="178.42" width="30.33" height="7.53" fill="#a5a5a5" opacity="0.18"></rect><path d="M314.44,228.45s-9.8-2.68-11.93-11.8c0,0,15.18-3.07,15.61,12.6Z" fill="#007c06" opacity="0.58"></path><path d="M315.64,227.48s-6.85-10.83-.82-20.95c0,0,11.54,7.34,6.41,21Z" fill="#007c06" opacity="0.73"></path><path d="M317.4,227.48S321,216.05,332,213.89c0,0,2.05,7.42-7.08,13.63Z" fill="#007c06"></path><polygon points="310.3 227.23 312.28 240.82 324.79 240.87 326.64 227.29 310.3 227.23" fill="#24285b"></polygon><path d="M247.78,151c-2.81,9.81-2.58,46.55-23.25,48.27-18.71,1.55-31.63,4.26-32.17,14.21H181l-.53,3.39h-15a12.7,12.7,0,0,0-1.81-3.39h-6.22a17.51,17.51,0,0,0-1.69,3.39h-7.64V171L156,148.35l6.41-18.45.9-2.62,1.77-5.09.27-2,.14-1v0h0l.41-3,.18-1.31.1-.75.56-4,.1-.74,3.8-1.72,3.91-1.76.07,0s3-.28,3,6.3-5.28,11.29-5.28,11.29l.59,5.27.74,6.67a52.14,52.14,0,0,1,8-1c.86-.05,1.75-.08,2.68-.08h0c.93,0,1.89,0,2.87.08a0,0,0,0,1,0,0c.9,0,1.82.13,2.74.25H190c7.72,1,15.66,4.51,17.58,14.37,2.59,13.26,2.69,24.17,6,28.35,1.82,2.28,4.59,2.56,9.25.12,8.94-4.68,14.58-19.2,17.29-28.09,1.29-4.25,1.92-7.21,1.92-7.21a7.82,7.82,0,0,1,2.38.16C246.75,142.84,249.58,144.69,247.78,151Z" opacity="0.08"></path><path d="M178.05,137.64a10,10,0,0,1,15-.13,39.51,39.51,0,0,1,10.23,26c.67,22.28,16.41,20.07,32.76-16.39l7.92,4.32s-21.67,72-54.77,31.18C169,157.73,172.34,144.33,178.05,137.64Z" fill="#007c06"></path><path d="M181.47,134.48a7.07,7.07,0,0,1,8.93.45,39.26,39.26,0,0,1,12.84,28.55c.67,22.28,16.41,20.07,32.76-16.39l7.92,4.32s-21.67,72-54.77,31.18C165.09,152.91,174.52,139.57,181.47,134.48Z" opacity="0.08"></path><path d="M171.66,109.84a32.88,32.88,0,0,1,0,8.72,2.64,2.64,0,0,1-3.13,2,5.86,5.86,0,0,1-4.74-4.18L162,111.91a4.71,4.71,0,0,1,1.85-5.12C166.69,104.54,171.4,106.65,171.66,109.84Z" fill="#f4a28c"></path><polygon points="162.3 112.73 160.35 129.81 169.84 130.21 167.45 117.62 162.3 112.73" fill="#f4a28c"></polygon><path d="M170.37,110.12a20.61,20.61,0,0,1-4.85-.16,4.37,4.37,0,0,1,.21,4.8,3.56,3.56,0,0,1-4.23,1.61l-.21-6.74a5.33,5.33,0,0,1,2.49-4.88,21,21,0,0,1,2.2-1.2c1.9-.86,4.8.31,6.48-1.08a1.26,1.26,0,0,1,2,.74c.4,2,.17,5.27-2.55,6.52A5.09,5.09,0,0,1,170.37,110.12Z" fill="#24285b"></path><path d="M166.29,114.58s-.13-2-1.64-1.8-1.34,3.14.73,3.32Z" fill="#f4a28c"></path><path d="M171.92,113.14l1.55,2a.84.84,0,0,1-.46,1.34l-2,.46Z" fill="#f4a28c"></path><path d="M168.09,120.36a6.25,6.25,0,0,1-3.15-1.7s.28,3.14,3.86,6.09Z" fill="#ce8172" opacity="0.31"></path><path d="M179.63,130s-35.26-7.89-47.88-.81S143.91,203,143.91,203l38.93-1.23S216.9,136.79,179.63,130Z" fill="#007c06"></path><path d="M237.67,148s-.49-8.05,4.67-10.07,0,12.62,0,12.62Z" fill="#f4a28c"></path><path d="M149,135.39s11.14,7.21,5.47,23.69c-2.88,8.38-8.56,25,3.57,29.11a21.38,21.38,0,0,0,13.6,0c2.48-.85,4.82-2.16,7.39-2.71a5.84,5.84,0,0,1,3.39.11,2.81,2.81,0,0,1,1.85,2.63c-.08,1.26-1.2,2.16-2.14,3s-1.86,2.09-1.41,3.28c.28.71,4.15-.3,4.37,2.36.11,1.22-1.73,3.72-2.27,4.92L149,199.65l-13.78-3.52-5.14-17.27,9.36-29.27Z" opacity="0.08"></path><path d="M155.48,217.72c.11-.3.21-.6.32-.88a17.51,17.51,0,0,1,1.69-3.39c1.27-1.84,2.72-2.55,4.38-1.64a6,6,0,0,1,1.84,1.64,12.7,12.7,0,0,1,1.81,3.39c.11.28.2.58.3.88h14.53l.14-.88.53-3.39,1.82-11.68-21.9-1.37L149,199.65l-.86-.05-5.6-.35h-.12v18.48Z" fill="#24285b"></path><path d="M142.15,127.1s-21.94-3.69-21.94,30.82,5.27,65.24,55.9,34.45l-3.85-5.87S145,198.5,139.2,188,162,133,142.15,127.1Z" fill="#007c06"></path><path d="M142.15,127.1s-21.94-3.69-21.94,30.82,5.27,65.24,55.9,34.45l-3.85-5.87S145,198.5,139.2,188,162,133,142.15,127.1Z" fill="#fff" opacity="0.46"></path><path d="M172.26,186.5s9.14-7.25,10.58-1.71-8.05,5.57-8.05,5.57Z" fill="#f4a28c"></path><path d="M115,137.06a45.44,45.44,0,0,1,.6,32.69c-6.46,18,7.6,27.08-19.65,29.49S115,137.06,115,137.06Z" fill="#007c06"></path><path d="M115,137.06a45.44,45.44,0,0,1,.6,32.69c-6.46,18,7.6,27.08-19.65,29.49S115,137.06,115,137.06Z" opacity="0.08"></path><path d="M98.59,100.29a28.48,28.48,0,0,1,1,7.53A2.3,2.3,0,0,1,97.16,110a5.11,5.11,0,0,1-4.61-3l-2.07-3.68a4.11,4.11,0,0,1,1-4.65C93.65,96.31,98,97.57,98.59,100.29Z" fill="#f4a28c"></path><polygon points="91.34 104.17 87.75 118.73 95.91 120.14 95.27 109.26 91.34 104.17" fill="#f4a28c"></polygon><path d="M99.22,103.11l1.57,1.5a.73.73,0,0,1-.24,1.21l-1.66.65Z" fill="#f4a28c"></path><path d="M95.29,109.57s-2.79-1.29-3.55-2.43c0,0,.16,6,3.86,7.73Z" fill="#ce8172" opacity="0.31"></path><path d="M94,104.44s-.36-1.72-1.63-1.35-.78,2.87,1,2.78Z" fill="#f4a28c"></path><path d="M86.38,101.68c-.95,4.09-1.11,8.46-3.39,11.95-.35.52-.72,1.26-.26,1.69a1.08,1.08,0,0,0,.67.24,5.87,5.87,0,0,0,4.93-2.36A13.4,13.4,0,0,0,90.62,108a19,19,0,0,1,1.08-3.54A5.35,5.35,0,0,1,93.93,102c.72-.41,1.52-1.11,2.2-1.46l1.8-.91A3.18,3.18,0,0,0,99.08,95a4.26,4.26,0,0,0-2.7-1.86c-2-.36-3.74,1-5.48,1.84a6,6,0,0,0-3.62,3.74A21.92,21.92,0,0,0,86.38,101.68Z" fill="#24285b"></path><path d="M91.4,102.66s-2.22-1.32-3.05.45,1.66,3.15,3.34,2.08A3.67,3.67,0,0,1,91.4,102.66Z" fill="#f4a28c"></path><path d="M96.61,120l-8.17-1.4s-27.17,0-31.92,9.34-3.76,43.93,12,72.36l32.17.93s-1.78-20.88,4.21-32.25S129.49,133.43,96.61,120Z" fill="#007c06"></path><path d="M71.24,131.25s8.92,7.82,7.12,16.45c-.29,1.39-.59,3.08-.89,4.93A49.24,49.24,0,0,0,89,193l5.62,6.43-26.18.88-2.24-4.39L54,175.57Z" opacity="0.08"></path><path d="M56.07,128.77c-6,8.39-11.26,26.91-6.66,53a17.49,17.49,0,0,0,16.14,14.39l24.59,1.55v-8L71.46,187a7.17,7.17,0,0,1-5.83-9.19C68.92,167,74,147.36,72.7,133.36,71.9,124.86,61,121.81,56.07,128.77Z" fill="#007c06"></path><path d="M56.07,128.77c-6,8.39-11.26,26.91-6.66,53a17.49,17.49,0,0,0,16.14,14.39l24.59,1.55v-8L71.46,187a7.17,7.17,0,0,1-5.83-9.19C68.92,167,74,147.36,72.7,133.36,71.9,124.86,61,121.81,56.07,128.77Z" fill="#fff" opacity="0.46"></path><path d="M90.14,194.18s10-.17,8.56,3.3-8.56.75-8.56.75Z" fill="#f4a28c"></path><polygon points="123.34 199.6 127.36 176.83 98.8 176.83 96.32 196.24 83.22 196.42 83.22 199.6 123.34 199.6" fill="#ffd200"></polygon><circle cx="111.96" cy="187.74" r="2.86" fill="#fff"></circle><rect x="51.59" y="199.24" width="163.79" height="5.82" fill="#b3b3b3"></rect><rect x="54.4" y="205.07" width="158.17" height="36.26" fill="#ccc"></rect></svg>